<svg version="1.1" id="Layer_1" xmlns="http://www.w3.org/2000/svg" xmlns:xlink="http://www.w3.org/1999/xlink" x="0px" y="0px"
	 width="100%" viewBox="0 0 196 50" enable-background="new 0 0 196 50" xml:space="preserve">
<path fill="#FDFDFC" opacity="1.000000" stroke="none" 
	d="
M143.000000,51.000000 
	C95.333344,51.000000 48.166691,51.000000 1.000025,51.000000 
	C1.000017,34.333347 1.000017,17.666697 1.000008,1.000034 
	C66.333305,1.000023 131.666611,1.000023 196.999939,1.000011 
	C196.999954,17.666632 196.999954,34.333263 196.999969,50.999947 
	C179.166672,51.000000 161.333328,51.000000 143.000000,51.000000 
M10.372711,28.329517 
	C11.651012,25.240606 13.911677,24.791187 15.778853,27.453632 
	C16.795162,28.902807 17.122152,30.818979 18.031872,32.364521 
	C18.760086,33.601707 19.898506,34.597443 20.854872,35.700336 
	C21.332623,35.358021 21.810373,35.015701 22.288124,34.673382 
	C20.755316,31.200333 19.222509,27.727283 17.689701,24.254234 
	C18.094259,24.386238 18.498819,24.518240 18.903378,24.650244 
	C19.441446,22.067282 21.157982,18.963812 20.291195,17.001350 
	C17.923555,11.640861 12.663218,13.093561 8.182546,13.132610 
	C5.996177,20.822695 6.998819,34.016823 10.369260,35.243866 
	C10.369260,33.120815 10.369260,31.173273 10.372711,28.329517 
M73.545433,18.934923 
	C71.087730,19.261305 68.630035,19.587685 65.960106,19.942249 
	C64.540688,29.010096 65.295258,39.916584 67.818184,41.845943 
	C67.972687,40.580620 68.168015,39.461998 68.230980,38.335976 
	C68.299934,37.102867 68.246666,35.862923 68.246666,34.464550 
	C74.100090,36.620754 77.476402,35.613144 78.913467,31.593178 
	C80.923889,25.969326 79.034340,20.737848 73.545433,18.934923 
M33.325092,28.029251 
	C35.093250,27.362745 36.861408,26.696239 38.629566,26.029734 
	C37.278667,23.732300 36.450291,20.338354 34.457191,19.388571 
	C31.286860,17.877798 27.526966,18.538244 25.483410,22.374577 
	C23.529806,26.042048 24.375799,32.286652 27.096367,34.387615 
	C30.341654,36.893799 34.901123,36.482834 38.188889,33.096668 
	C34.389423,32.087566 28.085705,36.262287 27.784775,28.029497 
	C29.448017,28.029497 30.931799,28.029497 33.325092,28.029251 
M101.533844,32.618793 
	C102.021370,33.502922 102.508896,34.387051 102.996422,35.271183 
	C103.568329,34.458122 104.533455,33.690559 104.633850,32.822937 
	C104.875496,30.734556 104.712128,28.599312 104.712128,26.563484 
	C107.751144,26.032677 110.357491,25.577440 112.963837,25.122206 
	C112.908005,24.567600 112.852165,24.012997 112.796333,23.458391 
	C110.161354,23.172247 107.526382,22.886105 104.945587,22.605846 
	C104.945587,20.361902 104.945587,18.423098 104.945587,16.219425 
	C107.720787,16.033520 110.298119,15.860868 112.875450,15.688217 
	C112.839546,15.258085 112.803642,14.827953 112.767738,14.397821 
	C109.161484,14.397821 105.555229,14.397821 101.955452,14.397821 
	C101.822968,14.766522 101.618668,15.072813 101.616295,15.380659 
	C101.574188,20.848970 101.556641,26.317471 101.533844,32.618793 
M96.862129,24.043938 
	C95.764084,19.628668 92.497284,17.821905 88.644653,19.182005 
	C86.354401,19.990536 83.842697,22.738581 83.211121,25.092396 
	C82.199364,28.863094 82.374374,33.121197 87.080017,35.190926 
	C90.585037,36.732567 93.463570,36.188179 95.954643,33.378326 
	C86.503143,32.481903 86.503143,32.481903 86.462517,28.018795 
	C88.935616,28.018795 91.476379,28.355696 93.853127,27.877457 
	C95.051537,27.636320 95.952614,25.917524 96.862129,24.043938 
M165.790680,35.616489 
	C167.015518,34.811382 169.061447,34.205494 169.314026,33.164482 
	C170.131638,29.794788 170.869781,26.190756 170.437134,22.831734 
	C170.246735,21.353462 167.298157,19.469061 165.359650,19.121992 
	C159.838470,18.133492 156.366196,21.150129 156.006470,26.489666 
	C155.584534,32.752617 158.451538,35.728813 165.790680,35.616489 
M123.390656,33.035202 
	C122.269295,31.730711 120.513069,30.572296 120.171638,29.088356 
	C119.625397,26.714293 120.169365,24.110186 119.939529,21.632353 
	C119.846695,20.631550 118.929810,19.707182 118.387939,18.748030 
	C117.937195,18.899416 117.486450,19.050804 117.035706,19.202190 
	C117.035706,22.985771 116.741035,26.798321 117.109436,30.545685 
	C117.581932,35.352005 121.495552,37.033264 125.820168,34.821011 
	C126.872910,34.282475 128.326263,34.527039 129.493256,34.420834 
	C129.493256,29.685041 129.493256,24.367453 129.493256,19.049866 
	C128.892014,19.019140 128.290756,18.988415 127.689514,18.957687 
	C127.560753,21.569347 127.783302,24.263273 127.196800,26.767738 
	C126.688751,28.937269 125.263176,30.891933 123.390656,33.035202 
M175.815796,23.766558 
	C175.815796,27.588017 175.815796,31.409475 175.815796,35.230934 
	C176.424088,35.310398 177.032364,35.389858 177.640656,35.469322 
	C177.956268,34.420803 178.477386,33.385399 178.545334,32.321072 
	C178.693466,30.000813 178.072403,27.480021 178.791733,25.395206 
	C179.375198,23.704138 181.455566,22.529558 182.872025,21.125902 
	C183.899857,22.610958 185.447922,23.975058 185.828201,25.610670 
	C186.342056,27.820688 185.832245,30.249720 186.022232,32.563385 
	C186.098389,33.490673 186.867142,34.361092 187.320648,35.257401 
	C187.882446,34.464676 188.869507,33.702290 188.928619,32.873711 
	C189.129333,30.059940 189.181122,27.208660 188.959244,24.397800 
	C188.607300,19.939291 185.589066,18.011953 181.295471,19.087881 
	C179.634933,19.503996 177.880798,19.546522 175.955704,19.785795 
	C175.920700,20.557621 175.868408,21.711243 175.815796,23.766558 
M140.814148,28.996874 
	C141.204773,30.083101 141.595383,31.169327 141.985992,32.255554 
	C139.572433,32.570801 137.158875,32.886051 134.745316,33.201298 
	C136.487915,34.800724 138.837250,36.003834 140.882736,35.613747 
	C142.500519,35.305225 144.997787,32.909386 144.868820,31.673864 
	C144.663300,29.705107 142.677826,27.868805 141.293823,26.094481 
	C140.310089,24.833315 139.077438,23.766308 137.955902,22.612640 
	C139.655548,22.279255 141.352386,21.930302 143.056839,21.623632 
	C143.473083,21.548742 143.914276,21.612482 144.343994,21.612482 
	C144.469833,21.134789 144.595673,20.657095 144.721512,20.179403 
	C142.872467,19.773037 140.940414,18.843105 139.199554,19.119093 
	C137.694336,19.357725 135.500427,20.783306 135.251648,22.015469 
	C134.941071,23.553684 136.079697,25.578205 137.048294,27.103399 
	C137.572144,27.928261 139.044525,28.150747 140.814148,28.996874 
M41.901119,25.796732 
	C41.936279,27.454636 41.679817,29.184233 42.066189,30.755791 
	C42.918785,34.223705 45.397697,36.263031 48.921974,35.860878 
	C50.781868,35.648640 52.484192,34.055561 54.344078,33.038685 
	C50.831810,32.464378 46.982380,32.853481 46.174236,31.468275 
	C44.906250,29.294874 44.673035,25.291155 45.933811,23.264765 
	C46.908180,21.698700 50.843796,21.975058 54.592487,21.198227 
	C52.364803,20.366367 50.471233,19.213152 48.480312,19.008909 
	C44.364231,18.586655 42.689960,21.381514 41.901119,25.796732 
M152.015991,23.694412 
	C151.916763,22.156328 151.817535,20.618246 151.695648,18.729132 
	C149.099426,20.508986 148.164749,26.473188 149.104614,33.031635 
	C149.231064,33.913952 150.176651,34.678879 150.742935,35.498169 
	C151.167450,35.329887 151.591965,35.161610 152.016479,34.993332 
	C152.016479,31.543146 152.016479,28.092958 152.015991,23.694412 
M58.475098,19.115910 
	C57.134563,24.539501 57.157375,29.880825 58.458519,35.145016 
	C59.130703,35.117882 59.802891,35.090748 60.475075,35.063614 
	C60.125816,29.750599 59.776554,24.437584 58.475098,19.115910 
z"/>
<path fill="#B91B1B" opacity="1.000000" stroke="none" 
	d="
M10.370985,28.777624 
	C10.369260,31.173273 10.369260,33.120815 10.369260,35.243866 
	C6.998819,34.016823 5.996177,20.822695 8.182546,13.132610 
	C12.663218,13.093561 17.923555,11.640861 20.291195,17.001350 
	C21.157982,18.963812 19.441446,22.067282 18.903378,24.650244 
	C18.498819,24.518240 18.094259,24.386238 17.689701,24.254234 
	C19.222509,27.727283 20.755316,31.200333 22.288124,34.673382 
	C21.810373,35.015701 21.332623,35.358021 20.854872,35.700336 
	C19.898506,34.597443 18.760086,33.601707 18.031872,32.364521 
	C17.122152,30.818979 16.795162,28.902807 15.778853,27.453632 
	C13.911677,24.791187 11.651012,25.240606 10.370985,28.777624 
M17.387918,17.985445 
	C15.257319,17.124868 13.126719,16.264290 10.497694,15.202393 
	C10.497694,18.834084 10.497694,21.031340 10.497694,23.152464 
	C13.763803,22.769739 17.763994,23.778545 17.387918,17.985445 
z"/>
<path fill="#B60F10" opacity="1.000000" stroke="none" 
	d="
M73.945145,18.939629 
	C79.034340,20.737848 80.923889,25.969326 78.913467,31.593178 
	C77.476402,35.613144 74.100090,36.620754 68.246666,34.464550 
	C68.246666,35.862923 68.299934,37.102867 68.230980,38.335976 
	C68.168015,39.461998 67.972687,40.580620 67.818184,41.845943 
	C65.295258,39.916584 64.540688,29.010096 65.960106,19.942249 
	C68.630035,19.587685 71.087730,19.261305 73.945145,18.939629 
M75.792419,31.318033 
	C75.888397,28.892189 76.438118,26.357964 75.895149,24.084734 
	C75.609726,22.889812 73.020950,21.110277 72.163811,21.432764 
	C70.582138,22.027843 68.707390,23.832855 68.425842,25.398331 
	C68.062279,27.419741 68.570236,30.162603 69.811440,31.699593 
	C70.576004,32.646358 73.408447,31.923201 75.792419,31.318033 
z"/>
<path fill="#B61819" opacity="1.000000" stroke="none" 
	d="
M32.870338,28.029373 
	C30.931799,28.029497 29.448017,28.029497 27.784775,28.029497 
	C28.085705,36.262287 34.389423,32.087566 38.188889,33.096668 
	C34.901123,36.482834 30.341654,36.893799 27.096367,34.387615 
	C24.375799,32.286652 23.529806,26.042048 25.483410,22.374577 
	C27.526966,18.538244 31.286860,17.877798 34.457191,19.388571 
	C36.450291,20.338354 37.278667,23.732300 38.629566,26.029734 
	C36.861408,26.696239 35.093250,27.362745 32.870338,28.029373 
M28.506184,25.857794 
	C30.895769,25.857794 33.285355,25.857794 35.674938,25.857794 
	C35.876713,25.348927 36.078487,24.840061 36.280258,24.331194 
	C34.784214,23.225687 32.946033,20.965673 31.871935,21.283979 
	C30.241449,21.767170 29.141539,24.040752 28.506184,25.857794 
z"/>
<path fill="#396082" opacity="1.000000" stroke="none" 
	d="
M101.533813,32.202362 
	C101.556641,26.317471 101.574188,20.848970 101.616295,15.380659 
	C101.618668,15.072813 101.822968,14.766522 101.955452,14.397821 
	C105.555229,14.397821 109.161484,14.397821 112.767738,14.397821 
	C112.803642,14.827953 112.839546,15.258085 112.875450,15.688217 
	C110.298119,15.860868 107.720787,16.033520 104.945587,16.219425 
	C104.945587,18.423098 104.945587,20.361902 104.945587,22.605846 
	C107.526382,22.886105 110.161354,23.172247 112.796333,23.458391 
	C112.852165,24.012997 112.908005,24.567600 112.963837,25.122206 
	C110.357491,25.577440 107.751144,26.032677 104.712128,26.563484 
	C104.712128,28.599312 104.875496,30.734556 104.633850,32.822937 
	C104.533455,33.690559 103.568329,34.458122 102.996422,35.271183 
	C102.508896,34.387051 102.021370,33.502922 101.533813,32.202362 
z"/>
<path fill="#B41213" opacity="1.000000" stroke="none" 
	d="
M96.925133,24.455414 
	C95.952614,25.917524 95.051537,27.636320 93.853127,27.877457 
	C91.476379,28.355696 88.935616,28.018795 86.462517,28.018795 
	C86.503143,32.481903 86.503143,32.481903 95.954643,33.378326 
	C93.463570,36.188179 90.585037,36.732567 87.080017,35.190926 
	C82.374374,33.121197 82.199364,28.863094 83.211121,25.092396 
	C83.842697,22.738581 86.354401,19.990536 88.644653,19.182005 
	C92.497284,17.821905 95.764084,19.628668 96.925133,24.455414 
M88.092491,21.428940 
	C87.282387,22.676121 86.472290,23.923300 85.389862,25.589741 
	C88.773643,25.589741 91.289948,25.589741 93.961609,25.589741 
	C93.816429,21.898497 91.988289,20.697842 88.092491,21.428940 
z"/>
<path fill="#2E577A" opacity="1.000000" stroke="none" 
	d="
M165.418243,35.744884 
	C158.451538,35.728813 155.584534,32.752617 156.006470,26.489666 
	C156.366196,21.150129 159.838470,18.133492 165.359650,19.121992 
	C167.298157,19.469061 170.246735,21.353462 170.437134,22.831734 
	C170.869781,26.190756 170.131638,29.794788 169.314026,33.164482 
	C169.061447,34.205494 167.015518,34.811382 165.418243,35.744884 
M166.697983,32.227764 
	C167.154984,30.856037 168.153366,29.397375 167.950119,28.131668 
	C167.587997,25.876575 166.805542,23.529350 165.538452,21.670929 
	C165.127853,21.068687 161.722916,21.363043 161.296906,22.135162 
	C160.111740,24.283295 159.014633,26.980312 159.269547,29.308708 
	C159.680756,33.064674 162.619583,33.830521 166.697983,32.227764 
z"/>
<path fill="#30587C" opacity="1.000000" stroke="none" 
	d="
M123.816895,32.988384 
	C125.263176,30.891933 126.688751,28.937269 127.196800,26.767738 
	C127.783302,24.263273 127.560753,21.569347 127.689514,18.957687 
	C128.290756,18.988415 128.892014,19.019140 129.493256,19.049866 
	C129.493256,24.367453 129.493256,29.685041 129.493256,34.420834 
	C128.326263,34.527039 126.872910,34.282475 125.820168,34.821011 
	C121.495552,37.033264 117.581932,35.352005 117.109436,30.545685 
	C116.741035,26.798321 117.035706,22.985771 117.035706,19.202190 
	C117.486450,19.050804 117.937195,18.899416 118.387939,18.748030 
	C118.929810,19.707182 119.846695,20.631550 119.939529,21.632353 
	C120.169365,24.110186 119.625397,26.714293 120.171638,29.088356 
	C120.513069,30.572296 122.269295,31.730711 123.816895,32.988384 
z"/>
<path fill="#345C7F" opacity="1.000000" stroke="none" 
	d="
M175.815948,23.315710 
	C175.868408,21.711243 175.920700,20.557621 175.955704,19.785795 
	C177.880798,19.546522 179.634933,19.503996 181.295471,19.087881 
	C185.589066,18.011953 188.607300,19.939291 188.959244,24.397800 
	C189.181122,27.208660 189.129333,30.059940 188.928619,32.873711 
	C188.869507,33.702290 187.882446,34.464676 187.320648,35.257401 
	C186.867142,34.361092 186.098389,33.490673 186.022232,32.563385 
	C185.832245,30.249720 186.342056,27.820688 185.828201,25.610670 
	C185.447922,23.975058 183.899857,22.610958 182.872025,21.125904 
	C181.455566,22.529558 179.375198,23.704138 178.791733,25.395206 
	C178.072403,27.480021 178.693466,30.000813 178.545334,32.321072 
	C178.477386,33.385399 177.956268,34.420803 177.640656,35.469322 
	C177.032364,35.389858 176.424088,35.310398 175.815796,35.230934 
	C175.815796,31.409475 175.815796,27.588017 175.815948,23.315710 
z"/>
<path fill="#365D7E" opacity="1.000000" stroke="none" 
	d="
M140.451569,28.820927 
	C139.044525,28.150747 137.572144,27.928261 137.048294,27.103399 
	C136.079697,25.578205 134.941071,23.553684 135.251648,22.015469 
	C135.500427,20.783306 137.694336,19.357725 139.199554,19.119093 
	C140.940414,18.843105 142.872467,19.773037 144.721512,20.179403 
	C144.595673,20.657095 144.469833,21.134789 144.343994,21.612482 
	C143.914276,21.612482 143.473083,21.548742 143.056839,21.623632 
	C141.352386,21.930302 139.655548,22.279255 137.955902,22.612640 
	C139.077438,23.766308 140.310089,24.833315 141.293823,26.094481 
	C142.677826,27.868805 144.663300,29.705107 144.868820,31.673864 
	C144.997787,32.909386 142.500519,35.305225 140.882736,35.613747 
	C138.837250,36.003834 136.487915,34.800724 134.745316,33.201298 
	C137.158875,32.886051 139.572433,32.570801 141.985992,32.255554 
	C141.595383,31.169327 141.204773,30.083101 140.451569,28.820927 
z"/>
<path fill="#B31818" opacity="1.000000" stroke="none" 
	d="
M41.918400,25.371284 
	C42.689960,21.381514 44.364231,18.586655 48.480312,19.008909 
	C50.471233,19.213152 52.364803,20.366367 54.592487,21.198227 
	C50.843796,21.975058 46.908180,21.698700 45.933811,23.264765 
	C44.673035,25.291155 44.906250,29.294874 46.174236,31.468275 
	C46.982380,32.853481 50.831810,32.464378 54.344078,33.038685 
	C52.484192,34.055561 50.781868,35.648640 48.921974,35.860878 
	C45.397697,36.263031 42.918785,34.223705 42.066189,30.755791 
	C41.679817,29.184233 41.936279,27.454636 41.918400,25.371284 
z"/>
<path fill="#2A5479" opacity="1.000000" stroke="none" 
	d="
M152.016235,24.168592 
	C152.016479,28.092958 152.016479,31.543146 152.016479,34.993332 
	C151.591965,35.161610 151.167450,35.329887 150.742935,35.498169 
	C150.176651,34.678879 149.231064,33.913952 149.104614,33.031635 
	C148.164749,26.473188 149.099426,20.508986 151.695648,18.729132 
	C151.817535,20.618246 151.916763,22.156328 152.016235,24.168592 
z"/>
<path fill="#B80304" opacity="1.000000" stroke="none" 
	d="
M58.951195,19.120239 
	C59.776554,24.437584 60.125816,29.750599 60.475075,35.063614 
	C59.802891,35.090748 59.130703,35.117882 58.458519,35.145016 
	C57.157375,29.880825 57.134563,24.539501 58.951195,19.120239 
z"/>
<path fill="#FBEAE9" opacity="1.000000" stroke="none" 
	d="
M17.601507,18.318245 
	C17.763994,23.778545 13.763803,22.769739 10.497694,23.152464 
	C10.497694,21.031340 10.497694,18.834084 10.497694,15.202393 
	C13.126719,16.264290 15.257319,17.124868 17.601507,18.318245 
z"/>
<path fill="#FCEEED" opacity="1.000000" stroke="none" 
	d="
M75.552429,31.633923 
	C73.408447,31.923201 70.576004,32.646358 69.811440,31.699593 
	C68.570236,30.162603 68.062279,27.419741 68.425842,25.398331 
	C68.707390,23.832855 70.582138,22.027843 72.163811,21.432764 
	C73.020950,21.110277 75.609726,22.889812 75.895149,24.084734 
	C76.438118,26.357964 75.888397,28.892189 75.552429,31.633923 
z"/>
<path fill="#FBE6E6" opacity="1.000000" stroke="none" 
	d="
M28.161213,25.705791 
	C29.141539,24.040752 30.241449,21.767170 31.871935,21.283979 
	C32.946033,20.965673 34.784214,23.225687 36.280258,24.331194 
	C36.078487,24.840061 35.876713,25.348927 35.674938,25.857794 
	C33.285355,25.857794 30.895769,25.857794 28.161213,25.705791 
z"/>
<path fill="#FEEEEE" opacity="1.000000" stroke="none" 
	d="
M88.456909,21.254803 
	C91.988289,20.697842 93.816429,21.898497 93.961609,25.589741 
	C91.289948,25.589741 88.773643,25.589741 85.389862,25.589741 
	C86.472290,23.923300 87.282387,22.676121 88.456909,21.254803 
z"/>
<path fill="#F8FBFB" opacity="1.000000" stroke="none" 
	d="
M166.362213,32.489273 
	C162.619583,33.830521 159.680756,33.064674 159.269547,29.308708 
	C159.014633,26.980312 160.111740,24.283295 161.296906,22.135162 
	C161.722916,21.363043 165.127853,21.068687 165.538452,21.670929 
	C166.805542,23.529350 167.587997,25.876575 167.950119,28.131668 
	C168.153366,29.397375 167.154984,30.856037 166.362213,32.489273 
z"/>
</svg>